<?xml version="1.0" encoding="UTF-8" standalone="no"?>
<svg width="34px" height="34px" viewBox="0 0 34 34" version="1.1" xmlns="http://www.w3.org/2000/svg" xmlns:xlink="http://www.w3.org/1999/xlink">
    <!-- Generator: Sketch 44.1 (41455) - http://www.bohemiancoding.com/sketch -->
    <title>code</title>
    <desc>Created with Sketch.</desc>
    <defs></defs>
    <g id="icon" stroke="none" stroke-width="1" fill="none" fill-rule="evenodd">
        <g id="code">
            <g id="Group-2" transform="translate(9.000000, 7.000000)" stroke="#2C303C" stroke-width="2">
                <path d="M12.6529059,3.69110806 C11.8830695,1.92119085 10.1188998,0.68359375 8.06567383,0.68359375 C6.30043594,0.68359375 4.7488542,1.59836448 3.85911555,2.97971903 C3.35700471,3.759266 3.06567383,4.54980469 3.06567383,6.68359375" id="Oval-10" stroke-linecap="round" stroke-linejoin="round"></path>
                <path d="M2,7.20703125 L14,7.20703125 L14,7.20703125 C15.1045695,7.20703125 16,8.10246175 16,9.20703125 L16,17.2070312 L16,17.2070312 C16,18.3116007 15.1045695,19.2070312 14,19.2070312 L2,19.2070312 L2,19.2070312 C0.8954305,19.2070312 1.3527075e-16,18.3116007 0,17.2070312 L0,9.20703125 L0,9.20703125 C-1.3527075e-16,8.10246175 0.8954305,7.20703125 2,7.20703125 Z" id="Rectangle"></path>
            </g>
            <rect id="Rectangle-43" x="0" y="0" width="34" height="34"></rect>
        </g>
    </g>
</svg>